<svg width="256" height="160" viewBox="0 0 256 160" fill="none" xmlns="http://www.w3.org/2000/svg">
<path d="M36.6975 94.2407H29.9928V99.2443H23.6983L23.7428 97.0007C23.7785 94.766 22.2806 94.2407 20.5777 94.2407H0V114.549C0 115.181 0.517118 115.698 1.16797 115.698H22.6105L22.9137 110.738H29.9928V119.464C29.9928 119.784 30.2514 120.042 30.5724 120.042H37.2771V94.8194C37.2771 94.4989 37.0185 94.2407 36.6975 94.2407ZM16.3873 110.908H8.47003C7.67652 110.738 7.28423 110.338 7.28423 109.563V98.9861H15.4333C16.0663 99.1553 16.3784 99.4669 16.3784 100.09V110.908H16.3873ZM29.9928 106.937H23.2168L23.511 103.037H29.9928V106.937Z" fill="#003D66"/>
<path d="M36.7064 128.153C37.0274 128.153 37.2771 128.411 37.2771 128.732V133.228H5.22467C2.88873 133.228 1.72075 132.106 1.72075 129.854V120.042H9.00498L9.03173 126.942C9.03173 127.726 9.48643 128.153 10.4048 128.153H36.7154H36.7064Z" fill="#003D66"/>
<path d="M156.901 96.2083C156.936 95.131 155.991 94.2318 154.814 94.2318H149.509V100.482H140.816V94.2318H133.372V111.362C133.372 113.383 135.012 114.611 136.983 114.611H156.91V96.2083H156.901ZM149.509 110.088H142.252C141.298 110.088 140.816 109.661 140.816 108.815V104.711H149.509V110.097V110.088Z" fill="#003D66"/>
<path d="M164.426 120.372C161.635 118.734 157.846 117.923 153.04 117.923C148.234 117.923 144.517 118.716 141.762 120.318C139.015 121.912 137.634 123.986 137.634 126.533C137.634 129.079 139.015 131.145 141.762 132.729C144.508 134.314 148.27 135.098 153.04 135.098C157.81 135.098 161.635 134.296 164.426 132.694C167.1 131.136 168.447 129.088 168.447 126.533C168.447 123.978 167.1 121.93 164.426 120.372ZM158.8 130.014C157.311 130.878 155.394 131.314 153.022 131.314C150.651 131.314 148.743 130.878 147.289 130.014C145.827 129.15 145.096 127.984 145.096 126.533C145.096 125.082 145.827 123.906 147.289 123.034C148.752 122.152 150.668 121.707 153.022 121.707C155.376 121.707 157.311 122.143 158.8 123.034C160.28 123.915 161.029 125.082 161.029 126.533C161.029 127.984 160.28 129.141 158.8 130.014Z" fill="#003D66"/>
<path d="M168.438 94.7838C168.438 94.4811 168.17 94.2318 167.84 94.2318H160.984V114.059C160.984 114.362 161.252 114.611 161.581 114.611H168.438V110.329H173.484V106.661H168.438V94.7838Z" fill="#003D66"/>
<path d="M208.505 120.372C205.715 118.734 201.926 117.923 197.12 117.923C192.314 117.923 188.596 118.716 185.841 120.318C183.095 121.912 181.713 123.986 181.713 126.533C181.713 129.079 183.095 131.145 185.841 132.729C188.587 134.314 192.35 135.098 197.12 135.098C201.89 135.098 205.715 134.296 208.505 132.694C211.18 131.136 212.526 129.088 212.526 126.533C212.526 123.978 211.18 121.93 208.505 120.372ZM202.888 130.014C201.399 130.878 199.474 131.314 197.111 131.314C194.748 131.314 192.831 130.878 191.378 130.014C189.916 129.15 189.185 127.984 189.185 126.533C189.185 125.082 189.916 123.906 191.378 123.034C192.831 122.152 194.757 121.707 197.111 121.707C199.465 121.707 201.399 122.143 202.888 123.034C204.368 123.915 205.117 125.082 205.117 126.533C205.117 127.984 204.368 129.141 202.888 130.014Z" fill="#003D66"/>
<path d="M211.992 94.2318H205.135V100.055H198.93V96.1994C198.965 95.1132 198.02 94.2229 196.844 94.2229H191.539V100.473H183.443V94.2229H176.266V111.353C176.266 113.383 177.915 114.602 179.877 114.602H198.93V110.32H205.135V114.059C205.135 114.362 205.403 114.611 205.733 114.611H212.589V94.7838C212.589 94.4811 212.321 94.2318 211.992 94.2318ZM191.539 110.088H184.878C183.924 110.088 183.443 109.661 183.443 108.815V104.711H191.539V110.097V110.088ZM205.135 106.661H198.93V103.696H205.135V106.661Z" fill="#003D66"/>
<path d="M80.1354 94.2407H73.4307V99.1998H65.3084L65.4511 96.8138C65.5759 94.7215 64.5684 94.2407 62.4197 94.2407H43.6251V98.4074H56.776C57.5695 98.4074 57.9618 98.8437 57.9618 99.7162V103.037H43.429V111.077C43.429 114.487 45.0606 116.045 47.8423 116.508C49.5096 116.784 51.0877 117.06 53.3612 116.997C60.4671 116.793 64.2742 113.997 64.6932 113.053V110.952C61.4924 112.475 54.5559 112.216 52.6568 111.807C51.471 111.549 50.6597 110.899 50.6597 110.053V107.115H64.6932L64.9785 103.002H73.4307V107.159H64.7021V110.961H73.4307V116.258C73.4307 116.579 73.6893 116.837 74.0102 116.837H80.706V94.855C80.706 94.5167 80.4475 94.2585 80.1265 94.2585" fill="#003D66"/>
<path d="M45.7293 125.117C45.4083 125.117 45.1497 124.859 45.1497 124.538L45.1765 120.042H77.211C79.547 120.042 80.7149 121.164 80.7149 123.417V133.228H73.4307L73.404 126.292C73.404 125.509 72.9493 125.117 72.0309 125.117H45.7203H45.7293Z" fill="#003D66"/>
<path d="M255.403 94.2407H248.546V109.341C248.546 112.394 244.053 112.314 228.735 112.314H218.34V116.499H228.183V123.15H235.538V116.463C245.078 116.463 248.546 113.89 248.546 113.89V119.517H241.075V123.15H248.546V124.147C248.546 124.449 248.814 124.699 249.144 124.699H256V94.8016C256 94.4989 255.733 94.2496 255.403 94.2496" fill="#003D66"/>
<path d="M222.521 108.335C224.661 109.937 227.648 110.73 231.455 110.73C235.262 110.73 238.284 109.937 240.397 108.335C242.386 106.857 243.375 104.898 243.375 102.467C243.375 100.037 242.386 98.0869 240.397 96.6001C238.284 95.0331 235.306 94.2496 231.455 94.2496C227.603 94.2496 224.661 95.0331 222.521 96.6001C220.497 98.0869 219.49 100.046 219.49 102.467C219.49 104.889 220.506 106.857 222.521 108.335ZM228.29 99.2888C229.074 98.4965 230.135 98.1047 231.464 98.1047C232.792 98.1047 233.853 98.4965 234.638 99.2888C235.422 100.081 235.815 101.141 235.815 102.467C235.815 103.794 235.422 104.844 234.638 105.646C233.853 106.438 232.792 106.839 231.464 106.839C230.135 106.839 229.074 106.438 228.29 105.646C227.505 104.853 227.113 103.794 227.113 102.467C227.113 101.141 227.505 100.09 228.29 99.2888Z" fill="#003D66"/>
<path d="M255.42 128.394C255.741 128.394 256 128.634 256 128.928V133.094H224.188C221.87 133.094 220.711 132.053 220.711 129.969V123.132H228.192V127.307C228.192 128.028 228.646 128.394 229.556 128.394H255.429H255.42Z" fill="#003D66"/>
<path d="M109.023 116.036C110.913 114.326 111.858 112.056 111.858 109.252C111.858 106.447 110.913 104.186 109.023 102.467C108.497 101.995 107.908 101.586 107.257 101.23H113.891V96.7336H104.609V94.2318H96.5851V96.7336H87.063V101.23H93.7677C93.1168 101.586 92.5284 101.995 91.9845 102.467C90.0587 104.186 89.0958 106.447 89.0958 109.252C89.0958 112.056 90.0587 114.318 91.9845 116.036C94.0263 117.888 96.8615 118.805 100.49 118.805C104.119 118.805 106.99 117.888 109.005 116.036M97.2627 113.009C96.4603 112.074 96.0591 110.819 96.0591 109.26C96.0591 107.702 96.4603 106.447 97.2627 105.512C98.0651 104.577 99.1529 104.106 100.508 104.106C101.863 104.106 102.951 104.577 103.753 105.512C104.556 106.447 104.957 107.702 104.957 109.26C104.957 110.819 104.556 112.074 103.753 113.009C102.951 113.944 101.872 114.415 100.508 114.415C99.1439 114.415 98.0651 113.944 97.2627 113.009Z" fill="#003D66"/>
<path d="M125.223 94.7838C125.223 94.4811 124.955 94.2318 124.625 94.2318H117.716V120.781C117.716 121.084 117.983 121.333 118.313 121.333H125.223V110.329H129.788V106.652H125.223V94.7838Z" fill="#003D66"/>
<path d="M124.652 128.394C124.973 128.394 125.232 128.634 125.232 128.928L125.205 133.094H93.4111C91.0929 133.094 89.9339 132.053 89.9339 129.969V121.351H97.1646L97.1825 127.307C97.1825 128.028 97.6372 128.394 98.5466 128.394H124.652Z" fill="#003D66"/>
<path d="M143.295 25.2674C142.796 26.2022 141.922 27.876 142.582 28.152C143.714 28.615 144.864 27.4131 145.319 26.3892C145.72 25.49 145.676 24.9201 145.052 24.0298C144.303 22.9792 143.598 24.6887 143.295 25.2585" fill="#003D66"/>
<path d="M103.673 15.9724C102.282 16.2573 100.954 16.7381 99.6611 17.3079C98.3683 17.8777 97.1111 18.5365 95.854 19.1598C95.9342 19.3645 96.0056 19.6761 96.0591 19.9878C96.1215 20.2994 96.1571 20.6199 96.1839 20.8425C96.3533 22.4094 96.6653 24.1456 97.0309 25.8372C97.3964 27.5377 97.8244 29.2026 98.2345 30.6449C98.3237 31.0812 98.4128 31.5085 98.502 31.927C98.6001 32.3454 98.6982 32.7639 98.8141 33.1645C99.6878 32.7995 100.606 32.479 101.524 32.1496C102.443 31.8202 103.37 31.4996 104.262 31.1079C103.04 28.7129 103.103 26.1577 103.361 23.5847C103.62 21.0116 104.083 18.4208 103.664 15.9546" fill="#003D66"/>
<path d="M160.021 60.9515C159.896 61.2364 159.772 61.5391 159.647 61.8241C159.174 62.9548 158.702 64.0944 158.247 65.234C158.202 65.3319 158.167 65.4388 158.122 65.5367C157.89 66.1243 157.667 66.703 157.427 67.2906C156.972 68.4837 156.526 69.6678 156.125 70.8074L155.545 72.5168L155.216 73.5051H158.693C162.446 73.5051 165.487 70.5314 165.487 66.8455V48.9322C165.13 49.68 164.363 51.2648 163.391 53.3927C162.411 55.5117 161.225 58.1381 160.021 60.9515Z" fill="#003D66"/>
<path d="M160.824 39.8865C160.645 39.7885 160.289 39.6372 159.95 39.5482C154.895 38.3818 143.045 46.1366 133.568 49.1013C133.167 51.3449 132.864 52.9475 132.445 55.1288C132.017 57.3991 131.571 59.5982 131.152 61.6638C130.947 62.6699 130.751 63.6314 130.554 64.5751C130.447 65.1361 130.331 65.6791 130.224 66.2044C130.028 67.166 129.832 68.083 129.672 68.9199C129.627 69.1336 129.591 69.3384 129.547 69.561C129.502 69.7746 129.467 69.9794 129.422 70.1842C129.377 70.3712 129.342 70.5759 129.315 70.7718C129.297 70.8163 129.288 70.843 129.288 70.8786C129.235 71.1903 129.181 71.4752 129.119 71.7601C129.012 72.3299 128.914 72.8462 128.825 73.3092L128.807 73.4072L128.78 73.514H148.618L148.689 73.4072L161.501 44.4093C162.179 42.4773 162.134 40.5631 160.824 39.8954" fill="#003D66"/>
<path d="M162.705 13.2124C162.847 13.2124 162.99 13.2124 163.133 13.2213C163.267 13.2213 163.4 13.2391 163.525 13.248C163.588 13.248 163.65 13.2658 163.712 13.2836C163.775 13.3014 163.828 13.3281 163.873 13.3727C163.917 13.4083 163.971 13.4439 164.015 13.4884C164.06 13.5329 164.105 13.5774 164.149 13.6219C164.185 13.6576 164.212 13.6932 164.247 13.7288C164.274 13.7644 164.301 13.8 164.328 13.8445C164.363 13.889 164.39 13.9247 164.426 13.9692C164.452 14.0137 164.479 14.0493 164.497 14.0938C164.515 14.1294 164.541 14.165 164.559 14.1918C164.577 14.2274 164.604 14.263 164.622 14.2897C164.657 14.352 164.693 14.4143 164.72 14.4856C164.755 14.5479 164.782 14.6191 164.8 14.6903C164.827 14.7527 164.854 14.815 164.871 14.8773C164.889 14.9396 164.907 15.0019 164.925 15.0732C164.943 15.1355 164.969 15.1978 164.987 15.269C165.005 15.3314 165.023 15.4026 165.041 15.4738C165.041 15.4916 165.05 15.5094 165.05 15.5272C165.05 15.545 165.05 15.5629 165.068 15.5807C165.157 15.9635 165.228 16.3463 165.299 16.7203C165.371 17.0942 165.424 17.4325 165.487 17.7352C165.487 17.7263 165.487 17.299 165.487 16.8093C165.487 16.3196 165.487 15.7676 165.487 15.4916V6.65962C165.487 4.82555 164.729 3.16065 163.498 1.94981C162.268 0.747872 160.565 0 158.693 0H133.969C134.165 0 134.709 0.0178065 135.396 0.231484C136.082 0.445162 136.92 0.845807 137.678 1.61149L137.696 1.62929C137.696 1.62929 137.705 1.6471 137.714 1.6471C139.506 3.49897 140.005 6.65962 139.613 10.0339C139.114 14.3698 137.206 26.7364 136.68 29.9505C136.154 33.1645 135.458 37.2333 133.951 45.1839V45.2017C140.13 43.4389 145.114 40.1714 149.964 38.0346C154.814 35.8889 159.531 34.874 165.201 37.5805L165.21 37.5895C165.326 37.6696 165.388 37.7319 165.424 37.7764C165.46 37.8209 165.46 37.8387 165.46 37.8476V24.2257L164.996 26.6118V26.6652L164.969 26.7186C164.675 27.8493 164.328 28.98 163.694 29.8347C163.061 30.6894 162.152 31.2503 160.752 31.2503C159.789 31.2949 159.914 30.1642 160.226 28.8643C160.529 27.5644 161.011 26.0954 160.752 25.4721C159.896 26.1933 158.933 26.772 157.917 27.235C156.901 27.698 155.84 28.0452 154.805 28.2945C154.101 28.4725 152.755 28.5616 151.694 28.3301C150.633 28.0986 149.848 27.5466 150.258 26.4337C150.651 25.7571 151.284 25.6413 151.979 25.5879C152.675 25.5345 153.432 25.5523 154.083 25.1427C154.27 25.027 154.449 24.8934 154.627 24.7599C154.805 24.6263 154.993 24.4928 155.207 24.3771C156.633 23.558 158.327 23.0416 159.62 22.2047C160.913 21.3589 161.804 20.2014 161.644 18.1003C161.581 17.3702 161.439 16.6936 161.26 16.0347C161.082 15.3759 160.877 14.7259 160.699 14.0493C160.841 13.7021 161.136 13.4884 161.492 13.3638C161.849 13.2391 162.277 13.2035 162.678 13.2035M139.996 25.0092C140.772 23.2998 141.824 22.2759 142.867 20.8603C143.509 20.1391 143.179 19.2221 144.41 18.9906C145.604 18.7591 146.38 19.685 145.747 20.7623C157.427 27.1371 133.951 40.02 139.996 25.0003M159.451 18.6345C158.274 19.8008 156.321 20.5398 154.77 21.3678C153.254 22.1869 148.992 24.1723 149.349 21.2965C149.848 19.409 154.342 17.2367 157.32 16.7203C158.648 16.4888 160.69 17.3435 159.451 18.6345Z" fill="#003D66"/>
<path d="M131.125 22.3293C128.807 23.5936 126.319 24.6531 123.796 25.4187C121.255 26.1755 118.679 26.6296 116.2 26.6652C115.38 26.683 114.443 26.5405 113.605 26.22C112.758 25.8906 112.054 25.3653 111.706 24.5729C111.278 23.8161 111.43 23.0505 111.956 22.4985C112.5 21.9376 113.4 21.5992 114.479 21.6972C116.61 21.6527 118.857 21.1541 121.032 20.3884C123.19 19.6316 125.285 18.6078 127.113 17.5216C127.612 17.0497 128.013 16.3374 128.343 15.5629C128.664 14.8061 128.941 13.9692 129.199 13.2569C129.645 12.0372 129.921 10.7729 130.046 9.50865C130.171 8.23549 130.126 6.93562 129.921 5.66246C129.743 4.50504 129.627 3.44555 129.948 2.49291C130.269 1.54026 131 0.712259 132.516 0.00890323H97.2984C93.5537 0.00890323 90.5045 3.00039 90.5045 6.66852V16.1505C90.5045 16.1505 91.2802 15.2245 93.7588 15.3492H93.7677C94.1243 15.4026 94.5166 15.4827 94.9089 15.5896C104.039 11.0756 107.525 11.227 108.684 14.1918C109.843 17.1565 108.693 22.9169 108.559 29.6032C109.602 28.8554 110.084 29.1848 110.307 29.8436C110.529 30.5114 110.485 31.4996 110.458 32.0873C108.942 33.5029 106.99 34.6247 104.939 35.5773C102.897 36.53 100.767 37.3045 98.8943 38.0257C95.5419 39.2187 94.0976 39.1831 93.1971 38.0969C92.9474 37.7942 92.7424 37.4203 92.5641 36.9662C92.4927 36.806 92.4214 36.6279 92.359 36.4409C92.1272 35.7999 91.9043 35.0431 91.6279 34.1706C91.5477 33.9124 91.4585 33.6364 91.3693 33.3693L91.3426 33.2625L90.5134 30.182V66.8633C90.5134 70.5492 93.5626 73.5229 97.3073 73.5229H123.27L123.297 73.4161L123.341 73.2113L127.14 50.4368C126.783 50.5437 126.444 50.6594 126.123 50.7484C125.82 50.8553 125.526 50.9354 125.267 51.0066C121.362 52.1195 116.726 53.6598 113.302 53.3393C109.879 53.0098 107.676 50.8375 108.621 44.5073C108.942 43.2697 109.103 41.6671 109.674 40.3227C110.226 38.9873 111.18 37.9011 113.053 37.6696C113.579 37.6162 114.105 37.536 114.577 37.5895C115.032 37.6429 115.451 37.8209 115.772 38.2661C115.825 38.3373 115.852 38.3996 115.879 38.4798C115.906 38.5599 115.924 38.64 115.924 38.7202C115.968 40.0111 115.629 41.2309 115.344 42.4862C115.05 43.7238 114.818 44.988 115.041 46.3502C115.184 48.1309 115.968 48.7452 117.047 48.8877C118.117 49.0212 119.472 48.6829 120.72 48.576C121.817 48.2822 123.021 47.9617 124.242 47.6234C125.463 47.294 126.685 46.9467 127.773 46.5906C128.004 44.8545 128.994 39.5749 129.841 34.3487C130.688 29.1136 131.41 23.9141 131.134 22.3382M111.492 14.7972C111.974 12.1084 117.038 9.40181 121.532 8.35123C126.007 7.30955 129.904 7.91497 128.058 11.868C127.862 12.2776 127.639 12.5892 127.363 12.8474C127.086 13.1056 126.756 13.3103 126.364 13.4617C124.643 14.1561 122.896 14.4143 121.157 14.6992C119.427 14.9841 117.689 15.2958 116.013 16.1238C115.442 16.4265 114.934 16.747 114.435 17.0853C113.953 17.4414 113.481 17.8065 113.008 18.1893C112.856 18.314 112.678 18.3941 112.5 18.403C112.322 18.4297 112.143 18.3852 111.992 18.2783C111.617 17.9934 111.412 17.5216 111.341 16.9072C111.269 16.2929 111.341 15.5629 111.51 14.7883" fill="#003D66"/>
<path d="M47.0577 157.409C46.4425 157.035 45.9611 156.528 45.6133 155.878C45.2656 155.228 45.0962 154.498 45.0962 153.688C45.0962 152.806 45.2924 151.996 45.6936 151.266C46.0948 150.536 46.6387 149.957 47.3163 149.539C48.0028 149.12 48.7606 148.907 49.5898 148.907C50.0356 148.907 50.4814 148.969 50.9183 149.085C51.3551 149.209 51.7118 149.37 51.9703 149.565L52.1932 151.026C52.22 151.168 52.1932 151.284 52.1219 151.373C52.0506 151.462 51.9614 151.506 51.8455 151.506C51.7296 151.506 51.6315 151.453 51.5424 151.346C50.9985 150.741 50.4725 150.295 49.9553 150.019C49.4382 149.743 48.9389 149.601 48.4575 149.601C47.976 149.601 47.5302 149.735 47.1825 149.993C46.8348 150.251 46.5673 150.598 46.3979 151.026C46.2285 151.453 46.1394 151.934 46.1394 152.459C46.1394 153.198 46.2999 153.901 46.6119 154.569C46.924 155.237 47.3787 155.771 47.9582 156.181C48.5377 156.59 49.1975 156.795 49.9553 156.795C50.3833 156.795 50.7934 156.724 51.1857 156.581C51.578 156.439 51.9525 156.234 52.2913 155.967L52.4696 156.154C52.0238 156.724 51.5335 157.169 51.0163 157.489C50.4992 157.81 49.8751 157.961 49.144 157.961C48.3683 157.961 47.6729 157.774 47.0577 157.409Z" fill="#003D66"/>
<path d="M53.3879 157.516C53.1116 157.24 52.9778 156.884 52.9778 156.465C52.9778 156.172 53.0581 155.905 53.2096 155.664C53.3612 155.424 53.593 155.192 53.8961 154.979C54.1993 154.765 54.6005 154.533 55.0909 154.293L55.5188 154.079L57.1326 153.331V153.697L55.8041 154.32C55.3138 154.551 54.9304 154.801 54.6629 155.05C54.3954 155.299 54.2617 155.593 54.2617 155.905C54.2617 156.198 54.3687 156.439 54.5737 156.643C54.7788 156.839 55.0552 156.946 55.394 156.946C55.6615 156.946 55.9289 156.875 56.1964 156.741C56.4639 156.608 56.6868 156.421 56.8562 156.189L56.9721 156.367C56.7046 156.83 56.3747 157.213 55.9824 157.507C55.5902 157.801 55.1176 157.952 54.5737 157.952C54.0299 157.952 53.6643 157.81 53.3879 157.534V157.516ZM56.8116 156.35V152.904C56.8116 152.459 56.767 152.13 56.6868 151.934C56.6066 151.738 56.4639 151.631 56.2588 151.631C56.0449 151.631 55.7685 151.756 55.4297 152.005C55.0998 152.254 54.6807 152.664 54.1815 153.234C54.0834 153.34 53.9764 153.394 53.8694 153.403C53.7624 153.403 53.6732 153.367 53.6108 153.278C53.5395 153.189 53.5217 153.073 53.5484 152.931L53.7089 151.88C54.0031 151.738 54.3776 151.613 54.8234 151.497C55.2692 151.382 55.6882 151.319 56.0716 151.319C56.7403 151.319 57.2574 151.524 57.623 151.925C57.9885 152.325 58.1668 152.975 58.1579 153.866V156.163L58.4432 157.801H57.0969L56.8116 156.35Z" fill="#003D66"/>
<path d="M59.8965 153.358L59.7003 151.586L61.0288 151.391L61.2428 153.18V157.81H59.9054V153.367L59.8965 153.358ZM62.277 151.88C62.7139 151.542 63.1775 151.364 63.659 151.364V152.379C63.659 152.548 63.6055 152.673 63.5074 152.744C63.4093 152.824 63.2845 152.851 63.1329 152.833C62.6961 152.779 62.2948 152.815 61.9293 152.922C61.5637 153.029 61.2517 153.225 61.011 153.492V153.314C61.4211 152.69 61.8401 152.21 62.277 151.862V151.88Z" fill="#003D66"/>
<path d="M65.6026 157.561C65.1479 157.293 64.7913 156.928 64.5416 156.448C64.2831 155.976 64.1583 155.433 64.1583 154.827C64.1583 154.222 64.3009 153.607 64.5862 153.082C64.8715 152.548 65.2549 152.121 65.7274 151.8C66.2089 151.48 66.7438 151.319 67.3323 151.319C67.8048 151.319 68.2239 151.426 68.5894 151.631C68.955 151.836 69.2314 152.112 69.4275 152.45C69.6237 152.788 69.7217 153.162 69.7217 153.572C69.7217 153.83 69.6771 154.017 69.5969 154.142C69.5167 154.266 69.4097 154.338 69.2849 154.373C69.16 154.409 68.9906 154.427 68.7856 154.427H65.1836V154.062H68.848L68.313 154.338V154.035C68.3219 153.679 68.2684 153.323 68.1615 152.966C68.0545 152.61 67.8851 152.317 67.6533 152.085C67.4214 151.854 67.1451 151.738 66.8063 151.738C66.5031 151.738 66.2535 151.827 66.0395 151.996C65.8255 152.174 65.665 152.414 65.5491 152.735C65.4332 153.047 65.3708 153.412 65.3708 153.821C65.3708 154.311 65.4689 154.809 65.6561 155.308C65.8433 155.807 66.1287 156.225 66.5209 156.572C66.9043 156.911 67.3769 157.089 67.9386 157.089C68.2239 157.089 68.4913 157.035 68.7588 156.928C69.0174 156.822 69.267 156.661 69.4899 156.457L69.6415 156.635C69.3116 157.062 68.955 157.391 68.5448 157.623C68.1347 157.854 67.6711 157.97 67.1361 157.97C66.5655 157.97 66.0573 157.837 65.6026 157.569V157.561Z" fill="#003D66"/>
<path d="M75.7667 154.667L72.9047 149.058H74.4382L77.1219 154.338H76.9079L78.5841 149.058H79.7609C79.9393 149.049 80.0552 149.111 80.1176 149.236C80.18 149.361 80.1532 149.494 80.0462 149.646C79.4756 150.411 78.9318 151.221 78.4147 152.085C77.8975 152.949 77.4874 153.732 77.1932 154.453V157.801H75.7577V154.667H75.7667Z" fill="#003D66"/>
<path d="M80.92 157.552C80.4653 157.285 80.1087 156.911 79.859 156.43C79.6005 155.949 79.4756 155.415 79.4756 154.827C79.4756 154.195 79.6183 153.607 79.9036 153.064C80.1889 152.521 80.5723 152.094 81.0716 151.782C81.5709 151.471 82.1236 151.31 82.7299 151.31C83.2827 151.31 83.782 151.444 84.2278 151.72C84.6736 151.996 85.0213 152.37 85.2798 152.86C85.5295 153.349 85.6632 153.91 85.6632 154.533C85.6632 155.157 85.5295 155.771 85.2531 156.287C84.9767 156.804 84.6022 157.213 84.1119 157.507C83.6215 157.801 83.0865 157.952 82.4714 157.952C81.8918 157.952 81.3836 157.819 80.9289 157.543L80.92 157.552ZM84.1119 157.142C84.308 157.017 84.4596 156.83 84.5577 156.599C84.6557 156.367 84.7181 156.091 84.7181 155.789C84.7181 155.246 84.5666 154.676 84.2723 154.088C83.9781 153.492 83.5947 152.993 83.1311 152.593C82.6675 152.192 82.2039 151.987 81.7403 151.987C81.4817 151.987 81.2588 152.049 81.0627 152.183C80.8665 152.317 80.7149 152.495 80.6169 152.726C80.5099 152.958 80.4564 153.234 80.4564 153.536C80.4564 154.079 80.6079 154.649 80.9022 155.246C81.1964 155.842 81.5798 156.341 82.0434 156.741C82.507 157.142 82.9706 157.338 83.4253 157.338C83.6928 157.338 83.9246 157.276 84.1208 157.142H84.1119Z" fill="#003D66"/>
<path d="M87.3216 157.329C87.0006 156.911 86.8401 156.287 86.8401 155.477V151.497H88.1686V155.566C88.1686 156.074 88.2577 156.457 88.445 156.706C88.6322 156.955 88.8907 157.08 89.2295 157.08C89.5059 157.08 89.7912 156.991 90.0765 156.804C90.3708 156.617 90.6828 156.35 91.0127 155.985V156.287C90.6561 156.813 90.2638 157.222 89.8447 157.525C89.4257 157.828 88.9977 157.97 88.5609 157.97C88.0527 157.97 87.6336 157.756 87.3126 157.338L87.3216 157.329ZM90.8166 156.189V151.48H92.1539V155.976L92.4392 157.801H91.1019L90.8166 156.189Z" fill="#003D66"/>
<path d="M97.3429 150.767L97.2716 150.714L95.8183 149.04H97.7085L104.271 157.204L104.119 157.4C103.887 154.435 103.495 151.845 102.96 149.619C102.915 149.45 102.942 149.316 103.022 149.2C103.103 149.085 103.236 149.031 103.415 149.031H104.681L104.306 157.783H103.004L97.3519 150.758L97.3429 150.767ZM97.2092 150.233H97.334C97.4856 151.578 97.6461 152.824 97.8244 153.964C98.0027 155.103 98.2078 156.181 98.4485 157.204C98.4931 157.391 98.4663 157.534 98.3772 157.641C98.288 157.747 98.1543 157.801 97.9849 157.801H96.7367L97.2092 150.233Z" fill="#003D66"/>
<path d="M107.364 157.561C106.91 157.293 106.553 156.928 106.303 156.448C106.045 155.976 105.92 155.433 105.92 154.827C105.92 154.222 106.063 153.607 106.348 153.082C106.633 152.548 107.017 152.121 107.489 151.8C107.971 151.48 108.506 151.319 109.094 151.319C109.567 151.319 109.986 151.426 110.351 151.631C110.717 151.836 110.993 152.112 111.189 152.45C111.385 152.788 111.483 153.162 111.483 153.572C111.483 153.83 111.439 154.017 111.359 154.142C111.278 154.266 111.171 154.338 111.047 154.373C110.922 154.409 110.752 154.427 110.547 154.427H106.945V154.062H110.61L110.075 154.338V154.035C110.084 153.679 110.03 153.323 109.923 152.966C109.816 152.61 109.647 152.317 109.415 152.085C109.183 151.854 108.907 151.738 108.568 151.738C108.265 151.738 108.015 151.827 107.801 151.996C107.587 152.174 107.427 152.414 107.311 152.735C107.195 153.047 107.133 153.412 107.133 153.821C107.133 154.311 107.231 154.809 107.418 155.308C107.605 155.807 107.89 156.225 108.283 156.572C108.666 156.911 109.139 157.089 109.7 157.089C109.986 157.089 110.253 157.035 110.521 156.928C110.779 156.822 111.029 156.661 111.252 156.457L111.403 156.635C111.073 157.062 110.717 157.391 110.307 157.623C109.896 157.854 109.433 157.97 108.898 157.97C108.327 157.97 107.819 157.837 107.364 157.569V157.561Z" fill="#003D66"/>
<path d="M113.739 157.561C113.284 157.293 112.928 156.928 112.678 156.448C112.42 155.976 112.295 155.433 112.295 154.827C112.295 154.222 112.437 153.607 112.723 153.082C113.008 152.548 113.391 152.121 113.864 151.8C114.345 151.48 114.88 151.319 115.469 151.319C115.941 151.319 116.36 151.426 116.726 151.631C117.091 151.836 117.368 152.112 117.564 152.45C117.76 152.788 117.858 153.162 117.858 153.572C117.858 153.83 117.814 154.017 117.733 154.142C117.653 154.266 117.546 154.338 117.421 154.373C117.297 154.409 117.127 154.427 116.922 154.427H113.32V154.062H116.985L116.45 154.338V154.035C116.458 153.679 116.405 153.323 116.298 152.966C116.191 152.61 116.022 152.317 115.79 152.085C115.558 151.854 115.282 151.738 114.943 151.738C114.64 151.738 114.39 151.827 114.176 151.996C113.962 152.174 113.802 152.414 113.686 152.735C113.57 153.047 113.507 153.412 113.507 153.821C113.507 154.311 113.605 154.809 113.793 155.308C113.98 155.807 114.265 156.225 114.657 156.572C115.041 156.911 115.513 157.089 116.075 157.089C116.36 157.089 116.628 157.035 116.895 156.928C117.154 156.822 117.404 156.661 117.626 156.457L117.778 156.635C117.448 157.062 117.091 157.391 116.681 157.623C116.271 157.854 115.808 157.97 115.273 157.97C114.702 157.97 114.194 157.837 113.739 157.569V157.561Z" fill="#003D66"/>
<path d="M119.9 157.552C119.526 157.293 119.231 156.946 119.017 156.492C118.803 156.038 118.696 155.531 118.696 154.979C118.67 154.329 118.785 153.723 119.044 153.153C119.303 152.593 119.65 152.138 120.105 151.809C120.551 151.48 121.032 151.319 121.549 151.319C121.808 151.319 122.058 151.355 122.289 151.435C122.53 151.515 122.744 151.64 122.949 151.818C123.154 151.996 123.315 152.219 123.448 152.503L123.208 152.717V149.156L124.518 148.96V156.002L124.804 157.801H123.493L123.208 156.35V154.738C123.199 154.159 123.101 153.643 122.905 153.18C122.717 152.717 122.459 152.361 122.156 152.103C121.844 151.845 121.523 151.72 121.193 151.72C120.783 151.72 120.471 151.925 120.248 152.325C120.025 152.726 119.918 153.225 119.918 153.812C119.918 154.302 120.007 154.801 120.15 155.308C120.292 155.815 120.515 156.243 120.809 156.59C121.104 156.937 121.451 157.115 121.87 157.115C122.111 157.115 122.352 157.044 122.584 156.911C122.815 156.777 123.047 156.546 123.27 156.234L123.333 156.51C123.012 157.026 122.673 157.391 122.298 157.605C121.924 157.819 121.54 157.926 121.157 157.926C120.693 157.926 120.266 157.801 119.891 157.543L119.9 157.552Z" fill="#003D66"/>
<path d="M126.114 157.276C126.096 157.08 126.141 156.919 126.248 156.804C126.355 156.688 126.507 156.626 126.712 156.626H127.639L126.31 160L126.034 159.938C126.141 158.967 126.168 158.077 126.105 157.276H126.114Z" fill="#003D66"/>
<path d="M133.122 157.409C132.507 157.035 132.025 156.528 131.678 155.878C131.33 155.228 131.161 154.498 131.161 153.688C131.161 152.806 131.357 151.996 131.758 151.266C132.159 150.536 132.703 149.957 133.381 149.539C134.067 149.12 134.825 148.907 135.654 148.907C136.1 148.907 136.546 148.969 136.983 149.085C137.42 149.209 137.776 149.37 138.035 149.565L138.258 151.026C138.284 151.168 138.258 151.284 138.186 151.373C138.115 151.462 138.026 151.506 137.91 151.506C137.794 151.506 137.696 151.453 137.607 151.346C137.063 150.741 136.537 150.295 136.02 150.019C135.503 149.743 135.003 149.601 134.522 149.601C134.04 149.601 133.595 149.735 133.247 149.993C132.899 150.251 132.632 150.598 132.462 151.026C132.293 151.453 132.204 151.934 132.204 152.459C132.204 153.198 132.364 153.901 132.676 154.569C132.988 155.237 133.443 155.771 134.023 156.181C134.602 156.59 135.262 156.795 136.02 156.795C136.448 156.795 136.858 156.724 137.25 156.581C137.642 156.439 138.017 156.234 138.356 155.967L138.534 156.154C138.088 156.724 137.598 157.169 137.081 157.489C136.564 157.81 135.94 157.961 135.208 157.961C134.433 157.961 133.737 157.774 133.122 157.409Z" fill="#003D66"/>
<path d="M139.452 157.516C139.176 157.24 139.042 156.884 139.042 156.465C139.042 156.172 139.122 155.905 139.274 155.664C139.426 155.424 139.657 155.192 139.961 154.979C140.264 154.765 140.665 154.533 141.155 154.293L141.583 154.079L143.197 153.331V153.697L141.869 154.32C141.378 154.551 140.995 154.801 140.727 155.05C140.46 155.299 140.326 155.593 140.326 155.905C140.326 156.198 140.433 156.439 140.638 156.643C140.843 156.839 141.12 156.946 141.458 156.946C141.726 156.946 141.993 156.875 142.261 156.741C142.528 156.608 142.751 156.421 142.921 156.189L143.037 156.367C142.769 156.83 142.439 157.213 142.047 157.507C141.655 157.801 141.182 157.952 140.638 157.952C140.094 157.952 139.729 157.81 139.452 157.534V157.516ZM142.876 156.35V152.904C142.876 152.459 142.831 152.13 142.751 151.934C142.671 151.738 142.528 151.631 142.323 151.631C142.109 151.631 141.833 151.756 141.494 152.005C141.164 152.254 140.745 152.664 140.246 153.234C140.148 153.34 140.041 153.394 139.934 153.403C139.827 153.403 139.738 153.367 139.675 153.278C139.604 153.189 139.586 153.073 139.613 152.931L139.773 151.88C140.068 151.738 140.442 151.613 140.888 151.497C141.334 151.382 141.753 151.319 142.136 151.319C142.805 151.319 143.322 151.524 143.687 151.925C144.053 152.325 144.231 152.975 144.222 153.866V156.163L144.508 157.801H143.161L142.876 156.35Z" fill="#003D66"/>
<path d="M145.952 153.358L145.756 151.586L147.084 151.391L147.298 153.18V157.81H145.961V153.367L145.952 153.358ZM148.333 151.88C148.769 151.542 149.233 151.364 149.714 151.364V152.379C149.714 152.548 149.661 152.673 149.563 152.744C149.465 152.824 149.34 152.851 149.188 152.833C148.752 152.779 148.35 152.815 147.985 152.922C147.619 153.029 147.307 153.225 147.066 153.492V153.314C147.477 152.69 147.896 152.21 148.333 151.862V151.88Z" fill="#003D66"/>
<path d="M151.658 157.561C151.203 157.293 150.847 156.928 150.597 156.448C150.339 155.976 150.214 155.433 150.214 154.827C150.214 154.222 150.356 153.607 150.642 153.082C150.927 152.548 151.31 152.121 151.783 151.8C152.264 151.48 152.799 151.319 153.388 151.319C153.86 151.319 154.279 151.426 154.645 151.631C155.01 151.836 155.287 152.112 155.483 152.45C155.679 152.788 155.777 153.162 155.777 153.572C155.777 153.83 155.733 154.017 155.652 154.142C155.572 154.266 155.465 154.338 155.34 154.373C155.216 154.409 155.046 154.427 154.841 154.427H151.239V154.062H154.903L154.369 154.338V154.035C154.377 153.679 154.324 153.323 154.217 152.966C154.11 152.61 153.941 152.317 153.709 152.085C153.477 151.854 153.201 151.738 152.862 151.738C152.559 151.738 152.309 151.827 152.095 151.996C151.881 152.174 151.721 152.414 151.605 152.735C151.489 153.047 151.426 153.412 151.426 153.821C151.426 154.311 151.524 154.809 151.712 155.308C151.899 155.807 152.184 156.225 152.576 156.572C152.96 156.911 153.432 157.089 153.994 157.089C154.279 157.089 154.547 157.035 154.814 156.928C155.073 156.822 155.323 156.661 155.545 156.457L155.697 156.635C155.367 157.062 155.01 157.391 154.6 157.623C154.19 157.854 153.727 157.97 153.192 157.97C152.621 157.97 152.113 157.837 151.658 157.569V157.561Z" fill="#003D66"/>
<path d="M161.813 154.667L158.951 149.058H160.485L163.168 154.338H162.954L164.631 149.058H165.808C165.986 149.049 166.102 149.111 166.164 149.236C166.227 149.361 166.2 149.494 166.093 149.646C165.522 150.411 164.978 151.221 164.461 152.085C163.944 152.949 163.534 153.732 163.24 154.453V157.801H161.804V154.667H161.813Z" fill="#003D66"/>
<path d="M166.976 157.552C166.521 157.285 166.164 156.911 165.915 156.43C165.656 155.949 165.531 155.415 165.531 154.827C165.531 154.195 165.674 153.607 165.959 153.064C166.244 152.521 166.628 152.094 167.127 151.782C167.626 151.471 168.179 151.31 168.785 151.31C169.338 151.31 169.837 151.444 170.283 151.72C170.729 151.996 171.077 152.37 171.335 152.86C171.585 153.349 171.719 153.91 171.719 154.533C171.719 155.157 171.585 155.771 171.309 156.287C171.032 156.804 170.658 157.213 170.167 157.507C169.677 157.801 169.142 157.952 168.527 157.952C167.947 157.952 167.439 157.819 166.984 157.543L166.976 157.552ZM170.158 157.142C170.355 157.017 170.506 156.83 170.604 156.599C170.702 156.367 170.765 156.091 170.765 155.789C170.765 155.246 170.613 154.676 170.319 154.088C170.025 153.492 169.641 152.993 169.178 152.593C168.714 152.192 168.25 151.987 167.787 151.987C167.528 151.987 167.305 152.049 167.109 152.183C166.913 152.317 166.762 152.495 166.663 152.726C166.556 152.958 166.503 153.234 166.503 153.536C166.503 154.079 166.655 154.649 166.949 155.246C167.243 155.842 167.626 156.341 168.09 156.741C168.554 157.142 169.017 157.338 169.472 157.338C169.739 157.338 169.971 157.276 170.167 157.142H170.158Z" fill="#003D66"/>
<path d="M173.377 157.329C173.056 156.911 172.896 156.287 172.896 155.477V151.497H174.224V155.566C174.224 156.074 174.313 156.457 174.5 156.706C174.688 156.955 174.946 157.08 175.285 157.08C175.561 157.08 175.847 156.991 176.132 156.804C176.426 156.617 176.738 156.35 177.068 155.985V156.287C176.712 156.813 176.319 157.222 175.9 157.525C175.481 157.828 175.053 157.97 174.616 157.97C174.108 157.97 173.689 157.756 173.368 157.338L173.377 157.329ZM176.872 156.189V151.48H178.209V155.976L178.495 157.801H177.157L176.872 156.189Z" fill="#003D66"/>
<path d="M184.584 149.2L184.825 149.378C184.754 149.378 184.673 149.361 184.602 149.352C184.29 149.352 183.907 149.467 183.434 149.69C182.962 149.913 182.498 150.251 182.025 150.705C181.927 150.803 181.811 150.847 181.696 150.839C181.571 150.839 181.482 150.767 181.419 150.661C181.357 150.554 181.348 150.42 181.401 150.26L181.749 149.058H188.837L189.185 150.26C189.238 150.42 189.229 150.554 189.167 150.661C189.105 150.767 189.015 150.83 188.891 150.839C188.766 150.839 188.668 150.803 188.57 150.705C188.097 150.26 187.625 149.922 187.152 149.69C186.679 149.467 186.296 149.352 185.993 149.352C185.922 149.352 185.85 149.352 185.779 149.378L186.02 149.2V157.801H184.584V149.2Z" fill="#003D66"/>
<path d="M189.738 153.358L189.541 151.586L190.87 151.391L191.084 153.18V157.81H189.747V153.367L189.738 153.358ZM192.118 151.88C192.555 151.542 193.019 151.364 193.5 151.364V152.379C193.5 152.548 193.447 152.673 193.349 152.744C193.25 152.824 193.126 152.851 192.974 152.833C192.537 152.779 192.136 152.815 191.77 152.922C191.405 153.029 191.093 153.225 190.852 153.492V153.314C191.262 152.69 191.681 152.21 192.118 151.862V151.88Z" fill="#003D66"/>
<path d="M194.927 157.329C194.606 156.911 194.445 156.287 194.445 155.477V151.497H195.774V155.566C195.774 156.074 195.863 156.457 196.05 156.706C196.237 156.955 196.496 157.08 196.835 157.08C197.111 157.08 197.396 156.991 197.682 156.804C197.976 156.617 198.288 156.35 198.618 155.985V156.287C198.261 156.813 197.869 157.222 197.45 157.525C197.031 157.828 196.603 157.97 196.166 157.97C195.658 157.97 195.239 157.756 194.918 157.338L194.927 157.329ZM198.422 156.189V151.48H199.759V155.976L200.044 157.801H198.707L198.422 156.189Z" fill="#003D66"/>
<path d="M202.371 157.739C201.934 157.587 201.569 157.418 201.257 157.222L201.079 156.1C201.061 155.985 201.079 155.887 201.132 155.815C201.186 155.744 201.257 155.709 201.355 155.7C201.453 155.691 201.533 155.726 201.613 155.798C202.095 156.225 202.621 156.572 203.192 156.857C203.762 157.142 204.244 157.285 204.636 157.285C204.85 157.285 205.028 157.24 205.171 157.142C205.314 157.044 205.376 156.911 205.376 156.724C205.376 156.581 205.322 156.448 205.207 156.314C205.091 156.181 204.886 156.011 204.591 155.815C204.297 155.62 203.86 155.353 203.29 155.032C202.844 154.774 202.496 154.551 202.229 154.373C201.97 154.186 201.747 153.981 201.578 153.741C201.408 153.501 201.319 153.225 201.319 152.904C201.319 152.45 201.506 152.067 201.881 151.773C202.255 151.48 202.781 151.328 203.468 151.328C204.012 151.328 204.627 151.435 205.331 151.649L205.465 152.584C205.492 152.726 205.474 152.842 205.421 152.931C205.367 153.02 205.287 153.064 205.18 153.064C205.073 153.064 204.975 153.02 204.877 152.931C204.467 152.601 204.065 152.317 203.673 152.103C203.281 151.88 202.933 151.773 202.657 151.773C202.46 151.773 202.309 151.818 202.184 151.907C202.059 151.996 201.997 152.112 201.997 152.254C201.997 152.477 202.157 152.717 202.469 152.975C202.781 153.234 203.209 153.501 203.735 153.777C204.484 154.177 205.028 154.56 205.358 154.925C205.688 155.29 205.849 155.7 205.849 156.163C205.849 156.706 205.661 157.142 205.278 157.471C204.895 157.801 204.368 157.97 203.7 157.97C203.245 157.97 202.799 157.899 202.362 157.747L202.371 157.739Z" fill="#003D66"/>
<path d="M207.436 157.516C207.204 157.222 207.088 156.715 207.088 156.011V151.845H206.499V151.631L208.416 149.797V151.48H210.895V151.845H208.416V156.617C208.416 157.017 208.443 157.285 208.488 157.418C208.541 157.552 208.612 157.623 208.728 157.623C208.871 157.623 209.067 157.471 209.326 157.178C209.584 156.884 209.861 156.474 210.164 155.949C210.226 155.851 210.297 155.789 210.396 155.771C210.494 155.753 210.574 155.771 210.645 155.833C210.717 155.896 210.752 155.994 210.752 156.118V157.302C210.422 157.489 210.048 157.641 209.638 157.774C209.228 157.908 208.844 157.97 208.488 157.97C208.024 157.97 207.667 157.819 207.436 157.525V157.516Z" fill="#003D66"/>
</svg>
